<svg xmlns="http://www.w3.org/2000/svg" viewBox="0 0 1200 800" width="1200" height="800"><g transform="translate(937.0 77.0) rotate(0.0 -339.0 254.5) scale(-2.2076133355474585 2.2139194202923766)"><svg width="307.119" height="229.909" viewBox="0 0 307.119 229.909"><linearGradient id="a" gradientUnits="userSpaceOnUse" x1="0" x2="307.119" y1="99.42" y2="99.42"><stop offset="0" stop-color="#eee"/><stop offset="1" stop-color="#d6d7d8"/></linearGradient><path d="M121.322 148.638h69.889v77.764h-69.889z" fill="#d6d7d8"/><path d="M78.01 223.88h156.513v6.029H78.01z" fill="#428dfc"/><path d="M0 0h307.119v198.84H0z" fill="url(#a)"/><path d="M5.414 4.958h296.291v163.755H5.414z" fill="#fff"/><circle cx="284.522" cy="183.469" fill="#eee" r="8.754"/></svg></g><g transform="translate(221.0 355.0) rotate(0.0 179.0 177.0) scale(1.1450833383977148 1.1461986031918718)"><svg width="312.641" height="308.847" viewBox="0 0 312.641 308.847"><linearGradient id="c" gradientTransform="matrix(1 0 0 -1 0 310)" gradientUnits="userSpaceOnUse" x1="211.25" x2="-7.044" y1="112.364" y2="85.643"><stop offset="0" stop-color="#1b236d"/><stop offset="1" stop-color="#0a134f"/></linearGradient><linearGradient id="b"><stop offset="0" stop-color="#92c4fe"/><stop offset="1" stop-color="#74b4f7"/></linearGradient><linearGradient xmlns:xlink="http://www.w3.org/1999/xlink" id="d" gradientTransform="matrix(1 0 0 -1 0 310)" gradientUnits="userSpaceOnUse" x1="119.368" x2="63.113" xlink:href="#b" y1="203.088" y2="183.076"/><linearGradient xmlns:xlink="http://www.w3.org/1999/xlink" id="e" gradientTransform="matrix(1 0 0 -1 0 310)" gradientUnits="userSpaceOnUse" x1="169.336" x2="194.04" xlink:href="#b" y1="205.43" y2="222.006"/><linearGradient id="f" gradientTransform="matrix(1 0 0 -1 0 310)" gradientUnits="userSpaceOnUse" x1="30.505" x2="88.034" y1="189.532" y2="189.532"><stop offset="0" stop-color="#008eff"/><stop offset="1" stop-color="#0073dc"/></linearGradient><linearGradient xmlns:xlink="http://www.w3.org/1999/xlink" id="g" gradientTransform="matrix(1 0 0 -1 0 310)" gradientUnits="userSpaceOnUse" x1="100.065" x2="200.091" xlink:href="#b" y1="212.14" y2="212.14"/><path d="m147.374 44.65.589 7.107c-.683.401-1.604.047-2.106-.566s-.693-1.414-.895-2.179a35.659 35.659 0 0 0-1.334-4.046c-.239-.602-.499-1.22-.479-1.867.015-.479.184-.939.357-1.386.659-1.7 1.41-3.364 2.251-4.982l11.374 4.303-.092 1.153-3.413-.123c-.937-.034-1.932-.053-2.738.425l-.034 8.028c-.001.29-.022.622-.252.798-.381.293-.91-.106-1.176-.507-.7-1.052-1.033-2.299-1.355-3.521-.233-.877-.465-1.757-.697-2.637z" fill="#ffa29d"/><path d="m190.001 269.762-14.01 39.082 98.908.003s-5.071-9.782-21.978-17.028-30.639-22.061-30.639-22.061z" fill="#f7931e"/><path d="M132.67 158.396a170.49 170.49 0 0 1 6.393 34.145c.911 10.951 1.288 23.229 9.232 30.822 5.2 4.97 12.921 7.029 17.252 12.772 4.333 5.746 4.157 13.659 6.895 20.315 4.894 11.899 15.747 18.809 15.747 18.809s26.68.824 52.756-.393c-10.489-6.23-7.831-16.093-15.079-25.906a721.225 721.225 0 0 1-49.638-77.006c-6.889-12.346-13.486-24.999-22.614-35.795-2.077-2.456-4.63-4.979-7.843-5.111-2.296-.094-4.436 1.073-6.405 2.256-41.327 24.834-78.945 43.45-108.62 61.997-12.777 9.892 12.22 49.48 23.45 58.992l39.954-41.266c8.616-8.899 17.257-17.826 24.733-27.703 6.132-8.103 11.54-17.018 13.787-26.928z" fill="#0a134f"/><path d="m222.492 269.762-8.759 39.082 98.908.003s-5.071-9.782-21.978-17.028-30.639-22.061-30.639-22.061l-32.28.003" fill="#fbb03b"/><path d="M59.522 253.402c21.783-11.414 38.708-30.238 53.637-49.78 10.578-13.846 20.629-28.739 24.387-45.754 1.203 14.658 3.472 31.267 15.518 39.705 3.964 2.776 9.008 4.709 11.024 9.108 1.165 2.543 1.065 5.453 1.287 8.242.724 9.073 5.271 17.778 12.304 23.556 7.883 6.477 17.755 16.39 26.244 22.049 8.759 5.839 10.178 5.932 16.304 14.493 12.183-.318 29.729-.495 41.604-3.238-3.327-4.508-6.654-9.016-9.873-13.602-30.688-43.712-52.201-95.103-92.716-129.904-2.424-2.082-5.247-4.211-8.434-3.992-2.014.138-3.829 1.208-5.558 2.25-20.888 12.585-36.735 21.509-57.623 34.094-5.941 3.579-16.716 11.138-22.096 15.515-10.881 8.851-23.245 19.155-23.245 19.155s.738 22.128-2.319 21.551c1.907-15.781-1.391-31.03-1.391-31.03s-17.789-7.65-25.476-13.333C3.814 183.264-.911 200.092.146 214.279s7.95 27.851 18.732 37.133c3.737 3.217 7.994 5.958 12.752 7.254 9.351 2.548 19.307-.765 27.892-5.264z" fill="url(#c)"/><path d="M138.738 30.917a1023.25 1023.25 0 0 0-24.32 40.929c-3.657-4.034-8.727-6.761-14.109-7.59a261.463 261.463 0 0 0 16.938-36.381l21.491 3.042z" fill="#ffa29d"/><path d="M97.234 44.605c-4.496-1.998-4.389-12.826-3.856-17.717 1.012-9.29 5.731-18.125 12.89-24.132 2.148-1.802 2.563-1 5.351-1.293 4.938-.519 13.946 1.909 16.297 6.283 1.055 1.964 3.05 5.084 4.701 6.582s3.19.614 5.382 3.628c.912 1.254 4.961 10.789 4.961 17.058 0 6.373-.09 9.316-5.856 11.312-2.448.847-16.596 1.29-21.256.958-7.622-.542-12.634-.022-18.614-2.679z" fill="#ffbfb7"/><path d="M41.314 191.364a253.094 253.094 0 0 1-29.05-18.061c16.945-20.003 34.019-40.192 46.466-63.264 6.742-12.496 12.2-25.94 21.625-36.56 7.948-8.955 12.927-14.802 24.482-17.938-.182 1.653-.717 2.732 14.993 6.953 1.373.369 4.628 17.931 4.917 19.322.258 1.243-1.86 17.519-2.346 18.691-4.401 10.607-17.21 28.985-27.173 38.949-23.38 23.382-40.457 36.836-53.914 51.908z" fill="url(#d)"/><path d="M154.43 117.016c-.705.116-1.363.422-2.01.725-4.18 1.955-5.64 2.315-9.82 4.27-1.482.693-2.31 2.079-6.469 5.159-1.315.974-.57 2.951.997 3.421 1.002.301 2.849-.397 3.777-.88 2.221-1.157 3.645-2.114 5.866-3.271 2.928-1.526 6.524-3.048 9.359-1.354a23.861 23.861 0 0 0-2.406 8.792c-.209 2.81-.757 5.821-1.113 8.616-.482 3.78-1.084 5.235-2.002 8.933s-2.463 10.473 1.316 10.965c1.928.251 2.038-3.255 2.451-5.155 1.443-6.63 2.839-11.329 4.584-17.887.28-1.054 1.034-3.189 1.583-2.247.508.873-1.617 5.005-3.542 11.089-.984 3.109-5.601 13.35-3.112 15.457 1.71 1.447 2.827-1.47 3.728-3.521.267-.608.158-1.086.616-1.925-1.155 1.771.792 3.074 1.52 2.383 1.695-1.608 3.452-7.658 3.954-9.025 3.228-8.787 6.498-17.802 6.493-27.163 0-.821-.044-1.697-.525-2.362-.503-.697-1.371-1.008-2.186-1.281l-9.344-3.133c-1.202-.404-2.463-.812-3.715-.606zm-9.864-82.744c.725-.328 1.549-.335 2.345-.336 5.078-.007 7.822 1.264 12.9 1.257.696-.001 1.419.004 2.046.306 1.27.613 2.262 3.056 2.93 4.298 4.048 7.519 6.909 11.271 11.527 18.137 1.01 1.502 2.874 9.257 3.016 11.061s-.801-.384-2.53.15c-.36-.751-1.472-.718-2.207-.326s-1.371 1.029-2.194 1.157c-1.594.248-4.735-7.952-5.63-9.294-3.019-4.528-7.354-3.329-11.095-6.793-2.038-1.887-3.849-3.472-6.51-6.011-1.919-1.831-4.933-4.987-2.84-6.616 2.685-2.091 5.064 1.5 7.765 3.57 2.234 1.712 4.101 3.218 7.321 5.283-2.411-2.358-3.472-3.849-4.849-6.423-.357-.668-.478-1.494-1.071-1.966-.396-.315-.9-.45-1.39-.578-2.958-.772-7.191-2.231-7.191-2.231l-2.344 6.154s.035.557.618 1.497c1.039 1.674.755 2.717.749 3.112-.005.779-.845 1.348-1.623 1.326s-3.751-5.699-3.805-6.476c-.151-2.189.566-2.743 1.811-6.113.403-1.086 1.195-3.667 2.251-4.145z" fill="#ffbfb7"/><path d="M149.233 70.996c3.86-1.896 26.449-14.106 26.449-14.106s31.848 65.558 23.35 74.771c-3.136 3.399-21.806-9.905-22.469-10.412-10.305-7.888-1.657-9.789-3.554-22.627-1.895-12.838-17.023-16.545-23.776-27.626z" fill="url(#e)"/><path d="M84.716 18.154c-.364 3.639-1.135 15.63 3.134 20.904 4.659 5.755 11.626 10.532 24.232 7.792.753-.164 8.587-10.601 9.252-21.238.235-3.761 3.258-7.314 3.761-14.104.47-6.347-2.238-8.615-3.761-9.403-2.811-1.454-4.012-1.368-7.522-1.881-4.631-.676-9.734.227-13.686 2.073-5.336 2.493-7.003 3.182-10.761 7.564-2.109 2.459-4.314 4.941-4.649 8.293z" fill="#0073dc"/><circle cx="75.887" cy="19.187" fill="#008eff" r="8.933"/><path d="M80.04 16.288h7.992v7.992H80.04z" fill="#f92424"/><path d="M50.806 33.003c-.368 0-.743-.084-1.122-.252-1.492-.661-2.887-1.556-4.235-2.421-2.93-1.88-5.7-3.653-8.884-2.626a.5.5 0 0 1-.307-.951c3.635-1.175 6.735.813 9.73 2.735 1.317.845 2.679 1.719 4.1 2.349.479.211.919.22 1.343.024 1.782-.815 3.016-4.856 3.752-7.271l.096-.315c1.514-4.939 3.785-7.536 6.75-7.716 3.489-.239 5.938 3.156 7.487 5.709a.503.503 0 0 1-.168.688.504.504 0 0 1-.688-.168c-1.414-2.33-3.594-5.396-6.571-5.23-2.506.152-4.476 2.511-5.854 7.011l-.097.314c-.836 2.742-2.101 6.886-4.292 7.888a2.474 2.474 0 0 1-1.04.232z" fill="#008eff"/><path d="m119.71 31.884 4.709 4.35c3.43-4.692 2.147-12.127-2.658-15.397-.919-.626-1.99-1.121-3.1-1.059-2.601.144-4.107 3.358-3.488 5.889.618 2.53 2.624 4.449 4.537 6.217z" fill="#ffbfb7"/><path d="M89.943 91.518c-.355 0-.706-.127-.983-.367l-14.807-12.86a1.499 1.499 0 0 1 .433-2.529l17.379-6.855a1.5 1.5 0 0 1 2.038 1.59l-2.572 19.716a1.498 1.498 0 0 1-1.488 1.305zM77.985 77.646l10.831 9.407 1.882-14.422z" fill="#f92424"/><g fill="#008eff"><path d="m88.694 74.135-5.335 1.917c.139-3.294.39-6.866 2.417-10.003 2.028-3.137 8.564-7.7 12.399-8.117-3.501 1.75-6.58 6.751-8.005 9.975-1.049 2.373-1.359 3.453-1.476 6.228zm-33.181 86.922c-2.198 0-4.363-.571-6.802-2.603l3.95-4.741c1.715 1.428 2.43 1.371 5.936.825.969-.15 1.824-.246 2.693-.343 2.811-.313 5.717-.636 12.02-3.027 13.12-4.976 19.247-8.059 22.346-12.138 0 0-10.266 13.889-20.158 17.908-6.969 2.832-10.482 3.052-13.526 3.391-.782.087-1.552.172-2.377.3-1.416.22-2.756.428-4.082.428zm25.346-81.838s4.859 4.545 6.418 5.251c-2.029 1.815-4.698 5.243-6.085 7.585-2.521-1.347-7.38-5.912-7.419-6.168-.037-.241 7.086-6.668 7.086-6.668z"/></g><path d="M71.356 80.016s11.86 9.391 16.678 13.092c-9.337 32.458-18.617 49.48-32.694 67.813-20.718-3.233-24.928-17.768-24.833-19.396.882-14.987 24.833-59.068 40.849-61.509z" fill="url(#f)"/><path d="M87.487 94.175c-.88-1.364-2.811-1.117-4.384-.716s-2.889 1.459-4.084 2.557c-5.296 4.867-9.372 11.128-15.436 14.997-2.642 1.685-5.992 2.871-8.877 1.647-3.43-1.455-4.77-5.869-3.95-9.503.82-3.635 3.25-6.661 5.609-9.545l6.793-8.304c1.787-2.185 3.913-4.551 6.732-4.704" fill="#0073dc"/><path d="M57.263 113.661a6.976 6.976 0 0 1-2.752-.542c-3.861-1.638-5.068-6.413-4.242-10.074.861-3.824 3.438-6.973 5.71-9.751l6.793-8.304c1.864-2.279 4.104-4.725 7.092-4.887.296-.032.511.196.526.472a.498.498 0 0 1-.472.526c-2.582.141-4.564 2.311-6.373 4.521l-6.793 8.304c-2.202 2.692-4.698 5.745-5.509 9.339-.746 3.312.418 7.559 3.658 8.934 3.077 1.303 6.593-.446 8.413-1.608 3.739-2.386 6.788-5.78 9.736-9.063 1.785-1.988 3.632-4.045 5.63-5.881 1.235-1.135 2.61-2.243 4.298-2.674 1.595-.407 3.842-.753 4.928.93a.5.5 0 0 1-.839.543c-.561-.87-1.782-1.027-3.841-.504-1.473.376-2.729 1.396-3.869 2.441-1.962 1.804-3.792 3.842-5.562 5.813-2.993 3.333-6.089 6.779-9.943 9.238-1.472.939-3.97 2.227-6.589 2.227z" fill="#f92424"/><path d="m55.129 109.29 6.811-1.697a.882.882 0 0 0 .33-1.55l-5.405-4.225a.882.882 0 0 0-1.401.491l-1.405 5.922a.88.88 0 0 0 1.07 1.059z" fill="#f92424"/><path d="M128.218 15.769c-.117 0-.232-.005-.349-.016a.501.501 0 0 1 .094-.996c.999.094 2.099-.37 3.006-1.275.853-.85 1.452-1.961 2.032-3.036a.501.501 0 0 1 .881.475c-.615 1.139-1.25 2.316-2.207 3.27-1.018 1.014-2.261 1.578-3.457 1.578z" fill="#1b236d"/><path d="M43.902 49.842a.5.5 0 0 1-.494-.429c-.482-3.362 1.895-6.898 5.191-7.722.846-.21 1.718-.259 2.562-.306 1.183-.065 2.301-.128 3.278-.611 2.347-1.161 2.858-4.242 2.97-5.514.078-.895.079-1.821.079-2.719.001-1.439.001-2.929.317-4.383 1.097-5.049 6.362-8.823 11.496-8.253a.5.5 0 0 1 .441.553.517.517 0 0 1-.553.441c-4.646-.527-9.415 2.901-10.408 7.472-.293 1.349-.293 2.719-.294 4.17 0 .919-.001 1.868-.083 2.807-.266 3.041-1.55 5.346-3.522 6.322-1.161.574-2.435.646-3.667.714-.833.046-1.621.09-2.374.277-2.822.704-4.856 3.73-4.443 6.608a.5.5 0 0 1-.496.573z" fill="#008eff"/><path d="M193.646 189.371a.245.245 0 1 1 .383-.304.245.245 0 0 1-.383.304zm4.715-3.679a.268.268 0 0 1 .038-.36.248.248 0 0 1 .345.056.233.233 0 0 1-.017.327c-.006.006-.014.011-.022.016a.245.245 0 0 1-.344-.039zm-11.279-20.513a.248.248 0 0 1-.221-.276.23.23 0 0 1 .277-.205c.133.012.23.127.22.259a.251.251 0 0 1-.276.222zm18.182 29.937a.243.243 0 0 1-.094-.327.24.24 0 1 1 .421.233.228.228 0 0 1-.327.094zm-14.069-17.898a.273.273 0 0 1-.312-.18c-.037-.135.043-.275.18-.312s.275.043.312.18a.274.274 0 0 1-.18.312zm5.765-1.601a.245.245 0 0 1-.295-.181.235.235 0 0 1 .143-.302c.007-.001.014-.005.02-.006a.263.263 0 0 1 .312.18.27.27 0 0 1-.18.309zm3.877 45.602a.465.465 0 0 1-.225-.617c.001-.005.005-.01.007-.015a.46.46 0 0 1 .612-.218l.004.001a.465.465 0 0 1 .225.617l-.007.015a.46.46 0 0 1-.612.218zm4.911-10.222a.47.47 0 0 1-.217-.632.47.47 0 0 1 .632-.217.46.46 0 0 1 .218.612l-.001.004a.492.492 0 0 1-.632.233zm-41.33-15.113a.475.475 0 0 1-.597-.294.452.452 0 0 1 .278-.594.475.475 0 0 1 .597.294.465.465 0 0 1-.278.594zm10.699-3.752a.471.471 0 1 1-.304-.891.465.465 0 0 1 .597.277.501.501 0 0 1-.293.614zm10.712-3.769a.46.46 0 0 1-.596-.294.452.452 0 0 1 .278-.594.502.502 0 0 1 .614.293.476.476 0 0 1-.296.595zm10.698-3.752a.471.471 0 0 1-.303-.891.472.472 0 0 1 .321.885l-.018.006zm24.533 36.437a.472.472 0 0 1-.441-.499.474.474 0 0 1 .499-.441h.005a.474.474 0 0 1 .438.502.466.466 0 0 1-.492.439l-.007-.002h-.002zm-40.241-7.301a.463.463 0 0 1 .058-.656.466.466 0 0 1 .61.705.48.48 0 0 1-.668-.049zm8.457-7.571a.463.463 0 0 1 .058-.656.465.465 0 0 1 .608.705.479.479 0 0 1-.666-.049zm8.437-7.569a.477.477 0 1 1 .019.019l-.019-.019zm-31.302-25.548a.474.474 0 0 1-.438-.502.46.46 0 0 1 .48-.436h.005a.45.45 0 0 1 .453.447v.037a.5.5 0 0 1-.5.454zm11.338.618a.499.499 0 0 1-.454-.499.476.476 0 0 1 .502-.438.466.466 0 0 1 .439.492v.009a.459.459 0 0 1-.479.436l-.006.001zm11.319.619a.447.447 0 0 1-.436-.461c0-.006 0-.015.002-.022a.465.465 0 0 1 .475-.456h.024c.26.017.457.241.441.499a.472.472 0 0 1-.499.441l-.007-.001zm-.606 47.542a.422.422 0 0 1-.027-.589.417.417 0 0 1 .616.562.421.421 0 0 1-.589.027zm6.864-7.447a.42.42 0 0 1-.027-.589.417.417 0 1 1 .631.545l-.017.018a.408.408 0 0 1-.576.039.075.075 0 0 0-.011-.013zm7.146-7.35a.347.347 0 0 1-.284-.099.42.42 0 0 1-.027-.589.427.427 0 0 1 .603-.032l.004.004a.421.421 0 0 1 .133.373l.001.017a.285.285 0 0 1-.11.2.358.358 0 0 1-.32.126zm6.579-7.546a.422.422 0 1 1 .607-.027.427.427 0 0 1-.603.032c0-.004-.002-.004-.004-.005zm-38.176-16.236a.444.444 0 0 1-.444-.416.405.405 0 0 1 .385-.424h.019a.414.414 0 0 1 .44.391v.009a.438.438 0 0 1-.4.44zm10.101-.424a.415.415 0 0 1-.425-.401.403.403 0 0 1 .385-.423h.019a.417.417 0 0 1 .442.391v.009a.433.433 0 0 1-.421.424zm10.137-.41a.414.414 0 0 1-.44-.391v-.009a.395.395 0 0 1 .362-.424l.04-.001a.417.417 0 0 1 .442.391V182a.428.428 0 0 1-.404.425zm21.843 37.093a.41.41 0 0 1-.247-.527c.001-.006.005-.011.007-.019a.398.398 0 0 1 .503-.248l.024.009c.217.073.336.31.262.528l-.005.014a.431.431 0 0 1-.544.243zm-31.886-16.535a.424.424 0 0 1-.553-.216.413.413 0 0 1 .199-.55.44.44 0 0 1 .567.196.434.434 0 0 1-.213.57zm9.193-4.266a.402.402 0 0 1-.54-.176c-.004-.007-.006-.015-.011-.022a.413.413 0 0 1 .199-.55.44.44 0 0 1 .567.196.422.422 0 0 1-.215.552zm9.195-4.248a.413.413 0 1 1-.351-.749.413.413 0 1 1 .351.749zm-20.602-30.196a.397.397 0 0 1-.247-.503l.009-.024a.417.417 0 0 1 .528-.262l.014.005a.433.433 0 0 1 .241.545.411.411 0 0 1-.545.239zm9.512 3.495a.431.431 0 0 1-.257-.542.424.424 0 0 1 .799.284.412.412 0 0 1-.518.266c-.009 0-.016-.004-.024-.008zm24.126 46.8a.25.25 0 1 1 .344-.078.26.26 0 0 1-.344.078zm-14.543-20.359a.245.245 0 1 1-.113-.477.245.245 0 0 1 .113.477zm5.813-1.368a.257.257 0 0 1-.296-.198.245.245 0 0 1 .181-.295.235.235 0 0 1 .29.163l.005.019a.253.253 0 0 1-.173.31.006.006 0 0 0-.007.001zm2.029 11.244a.265.265 0 0 1 .056-.345.241.241 0 0 1 .339.046l.009.012a.237.237 0 0 1-.038.332l-.012.01a.257.257 0 0 1-.354-.055zm-5.294-22.109c-.134-.02-.225-.144-.205-.278s.144-.225.278-.205a.23.23 0 0 1 .205.277.24.24 0 0 1-.269.206l-.005-.001zm7.406 38.269a.27.27 0 0 1-.022-.381l.004-.005a.276.276 0 0 1 .389-.036l.016.015a.27.27 0 0 1 .022.381l-.004.005a.291.291 0 0 1-.405.021zm4.571-5.05a.285.285 0 1 1 .384-.422.27.27 0 0 1 .022.381l-.005.006a.273.273 0 0 1-.385.049l-.016-.014zm-16.701-20.803a.264.264 0 0 1-.288-.233l-.001-.034a.28.28 0 0 1 .267-.289c.154 0 .284.112.305.266a.285.285 0 0 1-.282.29zm6.811-.331a.285.285 0 0 1-.29-.282v-.001a.28.28 0 0 1 .267-.289c.154 0 .284.112.306.265a.316.316 0 0 1-.283.307zm19.49 30.358a.282.282 0 0 1-.188-.352l.005-.014a.302.302 0 0 1 .368-.167.28.28 0 0 1 .17.359c-.001.004-.001.006-.004.009a.277.277 0 0 1-.351.165zm-19.604-17.378a.346.346 0 0 1-.079-.091.279.279 0 0 1 .128-.37c.004-.001.005-.004.009-.005a.289.289 0 0 1 .371.12l.001.016a.279.279 0 0 1-.134.374.256.256 0 0 1-.296-.044zm6.46-2.893a.276.276 0 0 1-.37-.117l-.001-.004a.3.3 0 0 1 .119-.388.309.309 0 0 1 .39.135.283.283 0 0 1-.138.374zm-30.788 20.732a.503.503 0 0 1-.644-.254.484.484 0 0 1 .237-.64.498.498 0 0 1 .644.254.483.483 0 0 1-.237.64zm10.66-4.814a.483.483 0 0 1-.403-.877.483.483 0 0 1 .403.877zm10.664-4.795a.498.498 0 0 1-.644-.254.482.482 0 1 1 .644.254zm10.662-4.813a.484.484 0 0 1-.404-.88.484.484 0 0 1 .404.88zm-33.863-34.776a.507.507 0 0 1-.286-.64.487.487 0 0 1 .639-.261c.241.1.36.372.27.617a.496.496 0 0 1-.623.284zm10.934 4.14a.496.496 0 0 1-.285-.623.484.484 0 1 1 .908.338.493.493 0 0 1-.623.285zm10.933 4.14a.492.492 0 0 1-.285-.623.507.507 0 0 1 .64-.286.489.489 0 0 1-.355.909zm14.099 40.644a.49.49 0 1 1 .692-.022.503.503 0 0 1-.692.022zm-34.402-23.484a.515.515 0 0 1-.503-.476.488.488 0 0 1 .479-.486.476.476 0 0 1 .5.451v.01a.489.489 0 0 1-.476.501zm11.7-.362a.49.49 0 0 1-.503-.474v-.001a.47.47 0 0 1 .461-.483.48.48 0 1 1 .047.959h-.005zm11.683-.359a.476.476 0 0 1-.5-.449v-.01a.488.488 0 1 1 .976-.057.488.488 0 0 1-.459.517c-.005-.002-.01-.001-.017-.001zm19.37 25.82a.516.516 0 0 1-.056-.687.498.498 0 0 1 .689-.039c.2.16.232.451.071.65l-.017.02a.482.482 0 0 1-.679.063c0-.002-.004-.004-.008-.007zm-44.505-17.271a.48.48 0 1 1 .458-.518.49.49 0 0 1-.458.518zm11.62-.841a.49.49 0 0 1-.517-.457.496.496 0 0 1 .441-.515.514.514 0 0 1 .534.455.502.502 0 0 1-.458.517zm11.62-.843a.49.49 0 0 1-.517-.457.479.479 0 1 1 .956-.074.498.498 0 0 1-.439.531zm11.619-.857a.463.463 0 0 1-.512-.411l-.003-.03a.484.484 0 0 1 .441-.515.478.478 0 0 1 .074.956zm-11.773 18.973a.476.476 0 0 1-.637-.217l-.001-.004a.484.484 0 0 1 .202-.652.497.497 0 0 1 .656.219.5.5 0 0 1-.22.654zm10.418-5.239a.48.48 0 1 1-.44-.854c.001-.001.005-.001.006-.004a.501.501 0 0 1 .656.219.476.476 0 0 1-.217.637l-.004.001zm-24.798-33.945a.493.493 0 0 1-.301-.621.477.477 0 0 1 .604-.299.472.472 0 0 1 .316.603.482.482 0 0 1-.603.322l-.016-.005zm11.058 3.666a.493.493 0 0 1-.301-.621.477.477 0 0 1 .604-.299.47.47 0 0 1 .315.603.483.483 0 0 1-.618.317zm-.432 13.53a.364.364 0 0 1 .092-.722.35.35 0 0 1 .309.416.364.364 0 0 1-.401.306zm8.687 1.2a.367.367 0 0 1 .107-.725.36.36 0 0 1 .311.403l-.002.014a.371.371 0 0 1-.416.308zm8.706 1.199c-.199-.029-.338-.217-.309-.416s.217-.338.416-.309.338.217.309.416a.374.374 0 0 1-.416.309zm-11.622 15.331a.367.367 0 0 1-.44-.263.381.381 0 0 1 .263-.44.361.361 0 0 1 .441.265.352.352 0 0 1-.238.434c-.01-.001-.019.003-.026.004zm8.511-2.213a.386.386 0 0 1-.457-.262.361.361 0 0 1 .26-.44h.001a.35.35 0 0 1 .438.233l.003.014a.364.364 0 0 1-.241.454zm8.495-2.228a.352.352 0 0 1-.434-.238c-.001-.009-.005-.016-.006-.025a.347.347 0 0 1 .229-.434l.019-.005a.386.386 0 0 1 .457.262.361.361 0 0 1-.26.44l-.004-.001h-.001zm2.255 1.449a.206.206 0 0 1-.226-.174c-.014-.111.063-.212.174-.226s.212.063.226.174l.001.017a.203.203 0 0 1-.175.209zm-8.955-3.366a.327.327 0 0 1-.207-.414.299.299 0 0 1 .365-.214c.01.004.02.005.03.01a.308.308 0 0 1 .228.369l-.007.025a.317.317 0 0 1-.409.224zm7.612 2.29a.308.308 0 0 1-.228-.369l.007-.025a.318.318 0 0 1 .389-.229l.021.007a.334.334 0 0 1 .224.41.318.318 0 0 1-.413.206z" fill="#fff" opacity=".51"/><path d="M170.436 122.771c.145 9.942-.167 17.922-.365 27.863-.014.704-.005 4.308-.276 4.958-.334.804-.668.931-1.413 1.059-.327.056-1.077-.194-1.617-.578-1.967-1.397.514-21.1.575-31.984a11.554 11.554 0 0 1 3.096-1.318z" fill="#ffbeb6"/><path d="M100.78 69.347c.702-3.164 6.627-7.094 9.764-7.965 4.308-1.197 8.99.509 12.692 3.431 26.666 21.043 49.382 38.427 76.048 59.47 3.292 8.691-4.036 12.368-12.125 9.462-18.911-8.383-18.553-10.176-37.044-19.549-12.71-6.443-34.483-11.158-43.168-22.494-5.928-7.738-8.166-13.348-6.167-22.355z" fill="url(#g)"/><path d="m88.861 82.303.834-6.418.917-.667c8.365-4.001 14.145-6.223 24.924-9.169 1.879-.514 5.087-.953 7.835-.667 2.245.234 3.935.769 5.335 2.001 2.084 1.834 5.745 6.069 5.83 6.122-2.004-1.195-7.393-3.127-9.665-3.037-8.419.333-22.256 5.085-34.98 11.538z" fill="#008eff"/></svg></g><g transform="translate(202.0 650.0) rotate(0.0 60.0 32.0) scale(0.8 0.8)"><svg width="150" height="80" viewBox="0 0 150 80"><path d="M16.733.022h125.536v29.706H16.733z" fill="#d62929"/><path d="M24.464 29.398H150v20.43H24.464z" fill="#428dfc"/><path d="M15.774 6.25h117.87v17.249H15.774z" fill="#d6d7d8"/><g fill="#eee"><path d="M15.774 8.28h117.87v2.174H15.774zm0 4.349h117.87v2.174H15.774zm0 4.349h117.87v2.174H15.774zm0 4.347h117.87v2.174H15.774z"/></g><path d="M1.132 50.271h148.094v29.706H1.132z" fill="#d62929"/><path d="M0 56.501h139.051V73.75H0z" fill="#d6d7d8"/><path d="M0 58.529h139.051v2.174H0zm0 4.349h139.051v2.174H0zm0 4.349h139.051v2.174H0zm0 4.349h139.051v2.174H0z" fill="#eee"/></svg></g><g transform="translate(785.0 402.0) rotate(0.0 134.5 147.0) scale(1.5276452682749535 1.5230161937027942)"><svg width="176.088" height="193.038" viewBox="0 0 176.088 193.038"><linearGradient id="j" gradientUnits="userSpaceOnUse" x1="56.583" x2="171.022" y1="148.638" y2="148.638"><stop offset="0" stop-color="#23286b"/><stop offset="1" stop-color="#151a4f"/></linearGradient><linearGradient id="h"><stop offset="0" stop-color="#428dfc"/><stop offset="1" stop-color="#1d72d8"/></linearGradient><linearGradient xmlns:xlink="http://www.w3.org/1999/xlink" id="k" gradientUnits="userSpaceOnUse" x1="102.561" x2="147.209" xlink:href="#h" y1="73.839" y2="118.486"/><linearGradient id="i"><stop offset="0" stop-color="#ffbeb6"/><stop offset="1" stop-color="#f8afa9"/></linearGradient><linearGradient xmlns:xlink="http://www.w3.org/1999/xlink" id="l" gradientUnits="userSpaceOnUse" x1="86.412" x2="76.561" xlink:href="#i" y1="39.464" y2="27.574"/><linearGradient xmlns:xlink="http://www.w3.org/1999/xlink" id="m" gradientUnits="userSpaceOnUse" x1="87.383" x2="77.825" xlink:href="#i" y1="37.446" y2="25.91"/><linearGradient xmlns:xlink="http://www.w3.org/1999/xlink" id="n" gradientUnits="userSpaceOnUse" x1="95.257" x2="110.257" xlink:href="#i" y1="133.071" y2="124.571"/><linearGradient xmlns:xlink="http://www.w3.org/1999/xlink" id="o" gradientUnits="userSpaceOnUse" x1="113.04" x2="174.224" xlink:href="#h" y1="86.461" y2="116.227"/><path d="M76.7 103.648c-.136 1.429.707 4.188.863 5.974.071.813-.042 2.603.368 3.31.657 1.136 4.291.75 5.604.736 2.269-.025 4.306-.627 6.401-1.457 3.318-1.314.687-2.268-1.323-2.715.916-.424 4.203-.92 4.176-2.511-.033-1.933-3.58-1.143-4.424-1.382 1.35-1.267 3.212-2.286 3.309-4.421.102-2.268-2.7-2.75-4.456-2.731-2.252.025-4.619.792-6.651 1.765-1.716.821-2.45 2.324-3.896 3.279-.034.133-.189.184.029.153z" fill="#f2a19c"/><path d="M80.658 105.009c-2.008 4.556-3.636 23.739-10.761 21.538 1.277-4.663 3.076-9.538 4.23-14.187 1.451-5.845.983-9.782 5.22-13.566 9.017-8.054 19.922-1.271 30.928-3.502-.067 3.217 1.179 6.162.598 9.227-4.426.239-11.86-3.257-15.125-.376-6.308 5.566-4.292 3.067-8.535 7.298-3.44 3.431-7.777 9.277-7.138 2.112.351-3.93 4.825-7.522 6.215-11.12-2.911-.269-5.579 3.203-5.632 2.576z" fill="#ffbeb6"/><path d="M89.877 172.467c4.215 2.638 9.241 3.947 13.583 6.588 3.241 1.972 6.274 4.071 9.623 5.819 4.304 2.246 9.939 5.282 14.753 5.812 15.492 1.707-1.188-17.318-4.649-21.821a338.24 338.24 0 0 0-5.887-7.42c-.961-1.181-1.57-2.046-2.764-3.04-.673-.561-2.646-2.96-3.311-3.136-1.517-.402-4.406 2.049-5.833 2.79-3.033 1.573-6.092 3.005-9.088 4.656-3.042 1.676-6.302 2.87-9.115 4.746 1.92 3.066-.364 3.096 2.688 5.006z" fill="#428dfc"/><path d="M95.685 130.584c-18.816.786-32.841-.325-45.613 1.59-13.266 1.989-38.31 3.544-34.901 24.347 4.508 27.509 60.257 16.113 78.517 16.11 6.687-.001 19.711.788 29.589.818 3.144-12.05 2.08-29.587-.003-41.835-9.781-.496-29.094-.524-27.589-1.03z" fill="#151a4f"/><path d="M170.811 121.64c0 15.251 2.393 36.482-8.967 48.293-11.465 11.919-29.031 5.347-43.8 5.369-14.666.022-30.447 1.333-44.718-.695-16.454-2.339-24.204-25.676-7.155-35.097 7.176-3.965 21.397-4.962 29.62-5.775 9.799-.969 20.767-.273 30.273-2.766.365-4.368.019-6.725-.727-10.783 11.437 4.261 37.693.933 45.474 1.454z" fill="url(#j)"/><path d="M112.976 39.84c14.029-.368 22.207 4.471 28.021 8.863 8.421 6.362 16.698 12.938 22.063 21.84 11.83 19.627 11.566 41.274 9.452 62.371-12.083.808-77.499-.782-77.499-.782l-.234-78.502s3.172-8.128 6.405-10.693c2.729-2.166 6.06-2.947 11.792-3.097z" fill="url(#k)"/><path d="M83.361 48.723c6.448 2.542 9.01 4.88 16.214 9.313 3.854 2.372 7.55 1.583 10.254-2.579 1.651-2.54 4.538-7.209 3.876-10.444-.805-3.938-4.431-5.071-7.75-6.996-2.454-1.424-7.823-6.798-10.271-7.016-4.023-.357-12.991 13.349-12.323 17.722z" fill="#f2a19c"/><path d="M59.005 26.633c-4.333 14.14 10.393 24.786 22.634 24.946 7.96.104 13.357-5.442 16.942-13.187 10.031-21.666-22.314-36.586-35.786-19.616-1.638 2.063-2.99 4.272-3.58 6.865-.562.332.113 1.782-.21.992z" fill="url(#l)"/><path d="M67.248 9.861c6.62-3.885 14.221-5.424 21.733-1.971 20.915 9.614 10.468 31.77 10.468 31.77L58.626 26.516s-2.242-10.279 8.622-16.655z" fill="#23286b"/><path d="M78.394 34.887c1.13-3.291 5.737-6.67 9.242-5.009 4.334 2.055 3.829 7.301 2.937 10.941-3.347-1.868-8.375-4.396-12.111-5.366.282.092-.337-.693-.068-.566z" fill="url(#m)"/><circle cx="90.766" cy="39.508" fill="#a1c3fc" r="8.496"/><path d="M57.048 127.328h46.78v6.833h-46.78z" fill="#89b3f4"/><path d="M0 85.913h58.134l13.403 48.248H13.403z" fill="#a1c3fc"/><circle cx="34.031" cy="110.867" fill="#89b3f4" r="4.993"/><path d="M130.006 124.302c-1.566-3.306-3.426-6.523-5.042-9.77-.804-1.615-.279-2.413-2.321-2.396-.917.007-2.771 1.461-3.639 1.729.223-.254-.958-.06-.679-.252-4.095 1.494-7.921 2.741-11.861 4.638-1.886.908-3.82 1.623-5.718 2.437-.624-.131-1.238-.272-1.899-.33-2.238-.197-3.669.419-5.736 1.134-3.739 1.293-7.559 1.376-10.714 3.841-1.303 3.603 6.467 2.898 10.584 2.509-1.292 2.77-2.457 5.617-3.867 8.273-.733 1.379-3.046 4.537-.553 5.751 1.807.879 2.022-.597 3.09-.826 2.167-.466 1.615-.369 4.21.126 3.045.581 5.045-.585 7.607-.377 1.265.103 2.406 1.427 3.664.713.55-.312.902-3.022 1.097-3.594.582-1.704.958-3.607 1.383-5.519 1.778-.425 3.542-.829 5.146-1.375 5.304-1.804 9.876-5.306 15.248-6.712z" fill="url(#n)"/><path d="M65.718 48.128c-1.977 0-4.239-1.213-5.906-3.167-1.228-1.439-2.013-3.116-2.211-4.722-.208-1.682.247-3.093 1.28-3.975.671-.572 1.548-.875 2.534-.875 1.978 0 4.24 1.213 5.907 3.167 1.228 1.44 2.013 3.117 2.211 4.723.207 1.682-.247 3.093-1.281 3.975-.671.572-1.547.874-2.534.874zM61.415 36.39c-.756 0-1.391.214-1.886.635-.769.656-1.102 1.754-.937 3.091.175 1.413.878 2.903 1.98 4.195 1.481 1.737 3.453 2.816 5.145 2.816.757 0 1.392-.213 1.886-.635.77-.656 1.103-1.754.937-3.091-.174-1.413-.877-2.903-1.979-4.196-1.482-1.736-3.453-2.815-5.146-2.815z" fill="#23286b"/><path d="M121.803 66.379c-1.307-7.094-.956-18.482 9.013-18.891 8.158-.334 16.051 12.106 20.077 17.927 9.769 14.124 16.487 28.188 20.106 44.655-12.684 12.546-32.253 22.633-48.048 30.01-4.773-7.483-10.473-15.522-13.23-23.953 12.631-6.853 21.013-9.945 31.928-16.136-4.643-3.588-17.818-22.608-19.846-33.612z" fill="url(#o)"/><path d="M102.145 40.11a.499.499 0 0 1-.484-.624c2.12-8.318 1.263-16.534-2.353-22.542-2.598-4.317-6.52-7.216-11.341-8.385a.5.5 0 0 1 .236-.972c5.087 1.233 9.223 4.291 11.961 8.841 3.752 6.235 4.65 14.729 2.465 23.305a.5.5 0 0 1-.484.377z" fill="#23286b"/><path d="m96.504 35.383-2.832-.991c.5-1.428 1-2.754 1.479-4.026 1.491-3.958 2.779-7.375 3.215-11.726.736-7.363-2.826-12.619-9.277-14.84C78.527.164 69.363 8.69 69.363 8.69c-1.969 1.006-4.237 2.354-6.098 4.172C66.225 3.248 78.989-2.306 89.937.921c7.919 2.334 12.292 9.237 11.414 18.017-.475 4.742-1.826 8.33-3.393 12.485-.471 1.252-.963 2.555-1.454 3.96z" fill="#a1c3fc"/><circle cx="90.766" cy="39.508" fill="#b9d3fd" r="5.64"/><path d="M142.346 59.223c.028.08.118.122.198.092a.155.155 0 0 0 .093-.198.153.153 0 0 0-.198-.092.154.154 0 0 0-.093.198zm10.848 11.562a.157.157 0 0 0 .076.211.145.145 0 0 0 .203-.081.153.153 0 0 0-.067-.205.162.162 0 0 0-.212.075zm-5.117-6.209a.173.173 0 0 0-.007.228.161.161 0 1 0 .235-.221.174.174 0 0 0-.228-.007zm-18.936 8.223a.302.302 0 0 0-.04.42.287.287 0 0 0 .4.058l.013-.01a.302.302 0 0 0 .04-.42.294.294 0 0 0-.413-.048zm5.57-4.515a.297.297 0 0 0-.034.42.296.296 0 0 0 .414.039.293.293 0 0 0 .048-.412.318.318 0 0 0-.428-.047zm5.585-4.518a.291.291 0 0 0-.046.41l.007.008a.287.287 0 0 0 .4.058l.013-.01a.32.32 0 0 0 .047-.428.305.305 0 0 0-.421-.038zm-15.331-5.726a.294.294 0 0 0 .372.187.294.294 0 0 0-.178-.561.302.302 0 0 0-.194.374zm6.882-2.04a.294.294 0 1 0 .194-.374.303.303 0 0 0-.194.374zm10.245 23.3a.3.3 0 0 0 .125.402.29.29 0 0 0 .394-.114s.002-.002.001-.003a.284.284 0 0 0-.09-.392l-.02-.012a.316.316 0 0 0-.41.119zm3.429-6.31a.315.315 0 0 0 .118.41.3.3 0 0 0 .402-.125.294.294 0 0 0-.123-.401.29.29 0 0 0-.394.112l-.003.004zm3.423-6.3a.282.282 0 0 0 .104.387l.012.006c.14.083.321.035.403-.104l.008-.013a.298.298 0 0 0-.525-.281c0 .004-.001.005-.002.005zm-25.8-15.449a.267.267 0 0 0 .309.21.264.264 0 1 0-.099-.519.269.269 0 0 0-.21.309zm14.937 22.271a.28.28 0 0 0 .077.377c.116.08.276.05.355-.066l.006-.01a.262.262 0 0 0-.064-.366l-.004-.003a.277.277 0 0 0-.37.068zm3.581-5.299a.263.263 0 0 0 .074.362c.116.08.276.05.355-.066l.006-.01a.265.265 0 0 0-.063-.368l-.004-.003a.274.274 0 0 0-.368.085zm3.584-5.321a.265.265 0 0 0 .063.368l.004.003a.25.25 0 0 0 .363-.077.265.265 0 0 0-.063-.368l-.004-.003a.273.273 0 0 0-.363.077zm-14.402-1.416a.268.268 0 0 0-.067.369.26.26 0 0 0 .362.075.277.277 0 0 0 .082-.37.275.275 0 0 0-.377-.074zm5.348-3.533a.255.255 0 0 0-.077.362.26.26 0 0 0 .362.075.277.277 0 0 0 .082-.37.266.266 0 0 0-.367-.067zm14.76 17.573a.251.251 0 0 0 .189.3l.015.003a.265.265 0 0 0 .319-.206.273.273 0 0 0-.213-.31.26.26 0 0 0-.307.201c-.003.004-.002.008-.003.012zm1.275-6.282a.272.272 0 0 0 .207.318.269.269 0 0 0 .111-.524.261.261 0 0 0-.318.206zm-34.143-13.448a.317.317 0 0 0-.076.431c.094.14.283.178.423.085a.313.313 0 0 0 .076-.431.306.306 0 0 0-.423-.085zm6.129-4.143a.306.306 0 0 0 .338.508.306.306 0 0 0-.338-.508zm19.737 21.48a.323.323 0 0 0 .249.367.309.309 0 0 0 .111-.608.314.314 0 0 0-.36.241zm1.399-7.261a.314.314 0 0 0 .241.36.306.306 0 1 0 .119-.601.313.313 0 0 0-.36.241zm-14.577-2.024a.327.327 0 0 0 .089.429.31.31 0 0 0 .421-.096.299.299 0 0 0-.077-.418l-.006-.004a.308.308 0 0 0-.427.089zm4.077-6.179a.31.31 0 0 0 .089.428l.001.001c.138.09.324.051.413-.088a.305.305 0 0 0-.503-.341zm-8.874 4.526a.304.304 0 1 0 .432-.074.31.31 0 0 0-.432.074zm4.309-5.978a.31.31 0 0 0 .075.43.314.314 0 0 0 .423-.066.325.325 0 0 0-.068-.438.316.316 0 0 0-.43.074zm10.831 8.84a.311.311 0 0 0 .234.368.301.301 0 0 0 .361-.226.298.298 0 0 0-.206-.367c-.004-.001-.008-.003-.013-.002a.305.305 0 0 0-.376.227z" fill="#fff"/></svg></g><g transform="translate(399.0 135.0) rotate(0.0 191.5 143.5) scale(0.9575 0.9566666666666667)"><svg width="400" height="300" viewBox="0 0 400 300"><linearGradient id="q" gradientTransform="matrix(.5714 0 0 -.5714 100 342.8571)" gradientUnits="userSpaceOnUse" x1="-51.643" x2="468.402" y1="337.5" y2="337.5"><stop offset="0" stop-color="#d6d7d8"/><stop offset="1" stop-color="#eee"/></linearGradient><linearGradient id="p"><stop offset="0" stop-color="#d6d7d8"/><stop offset="1" stop-color="#fff"/></linearGradient><linearGradient xmlns:xlink="http://www.w3.org/1999/xlink" id="r" gradientTransform="matrix(.5714 0 0 -.5714 100 342.8571)" gradientUnits="userSpaceOnUse" x1="-138.317" x2="399.816" xlink:href="#p" y1="455.075" y2="455.075"/><linearGradient xmlns:xlink="http://www.w3.org/1999/xlink" id="s" gradientTransform="matrix(-.5714 0 0 .5714 21.8307 1522.2946)" gradientUnits="userSpaceOnUse" x1="-642.538" x2="-145.33" xlink:href="#p" y1="-2301.578" y2="-2301.578"/><linearGradient xmlns:xlink="http://www.w3.org/1999/xlink" id="t" gradientTransform="matrix(.5714 0 0 -.5714 100 342.8571)" gradientUnits="userSpaceOnUse" x1="-19.738" x2="242.751" xlink:href="#p" y1="378.524" y2="378.524"/><ellipse cx="219.074" cy="150" fill="url(#q)" rx="148.584" ry="150"/><path d="M20.962 72.267h307.505v21.094H20.962z" fill="url(#r)" opacity=".58"/><path d="M132.389 227.455H400v7.91H132.389z" fill="#fff" opacity=".58"/><path d="M104.876 189.309h284.119v35.596H104.876z" fill="url(#s)" opacity=".58"/><path d="M88.721 116.011h149.994v21.094H88.721z" fill="url(#t)" opacity=".58"/><g fill="#a1c3fc"><path d="M163.058 43.848h202.299v6.154H163.058zM0 164.615h253.731v6.154H0zm192.013 20.769h131.818v6.154H192.013z"/></g></svg></g></svg>